# xmcd CD Database Entry
#
# Track frame offsets:
# 150
# 21737
# 44567
# 62970
# 83510
# 108035
# 128040
# 148760
# 168620
# 190287
# 208102
# 247815
# 269790
# 291687
# 309315
#
# Disc length: 4554 seconds
#
# Revision: 1
# Processed by: cddbd v1.4PL0 Copyright (c) Steve Scherf et al.
# Submitted via: tcd 2.0b
#
DISCID=ec11c80f
DTITLE=UFO - Live In Sausilito and BBC Studio 1975
DYEAR=1900
DGENRE=
TTITLE0=Let It Roll
TTITLE1=Doctor Doctor
TTITLE2=Oh My
TTITLE3=Built For Comfort
TTITLE4=Out In The Street
TTITLE5=Space Child
TTITLE6=Mother Mary
TTITLE7=All Or Nothing
TTITLE8=This Kids
TTITLE9=Shoot Shoot
TTITLE10=Rock Bottom
TTITLE11=Let It Roll
TTITLE12=Doctor Doctor
TTITLE13=Shoot Shoot
TTITLE14=Rock Bottom
EXTD=
EXTT0=
EXTT1=
EXTT2=
EXTT3=
EXTT4=
EXTT5=
EXTT6=
EXTT7=
EXTT8=
EXTT9=
EXTT10=
EXTT11=
EXTT12=
EXTT13=
EXTT14=
PLAYORDER=
